<?xml version="1.0" encoding="UTF-8" standalone="no"?>
<!-- Created with Inkscape (http://www.inkscape.org/) -->
<svg
   xmlns:svg="http://www.w3.org/2000/svg"
   xmlns="http://www.w3.org/2000/svg"
   version="1.0"
   width="396"
   height="468"
   id="svg2336">
  <defs
     id="defs2338" />
  <g
     id="g2417">
    <g
       id="g22550">
      <rect
         width="396"
         height="312"
         x="9.9999997e-05"
         y="0"
         id="rect4383"
         style="font-size:48px;fill:#eeeeee;fill-opacity:1;stroke:none;stroke-width:1;stroke-linecap:butt;stroke-linejoin:round;stroke-miterlimit:4;stroke-dasharray:none;stroke-opacity:1" />
      <rect
         width="396"
         height="156"
         x="4.9999999e-05"
         y="312"
         id="rect13385"
         style="fill:#3dc0bb;fill-opacity:1;stroke:none;stroke-width:1;stroke-linecap:butt;stroke-linejoin:round;stroke-miterlimit:4;stroke-dasharray:none;stroke-opacity:1" />
    </g>
    <path
       d="M 20.99427,49.904129 L 20.99427,21.349442 L 27.67396,21.349442 C 31.80155,21.34947 35.01443,22.579938 37.31263,25.040848 C 39.61078,27.501808 40.75987,30.939305 40.75989,35.353348 C 40.75987,40.053879 39.56847,43.654136 37.18568,46.154129 C 34.80285,48.654131 31.36535,49.904129 26.87318,49.904129 L 20.99427,49.904129 z M 24.64661,24.454911 L 24.64661,46.779129 L 26.52161,46.779129 C 33.44868,46.779132 36.91222,43.009605 36.91224,35.470536 C 36.91222,28.126807 33.70259,24.454936 27.28333,24.454911 L 24.64661,24.454911 z M 63.02552,28.947098 L 62.06849,32.189286 C 60.46691,31.603366 59.00858,31.310398 57.69349,31.310379 C 55.57108,31.310398 53.93371,31.912611 52.78138,33.11702 C 51.62903,34.321463 51.05285,36.062997 51.05286,38.341629 L 51.05286,49.904129 L 47.49818,49.904129 L 47.49818,28.458817 L 50.3888,28.458817 L 50.81849,32.384598 L 50.97474,32.384598 C 51.96431,30.835138 53.02551,29.728368 54.15833,29.064286 C 55.29113,28.400245 56.68436,28.068214 58.33802,28.068192 C 59.87446,28.068214 61.43696,28.361182 63.02552,28.947098 L 63.02552,28.947098 z M 78.24036,50.294754 C 75.42785,50.294754 73.1134,49.282385 71.297,47.257645 C 69.48059,45.23291 68.57239,42.527835 68.57239,39.142411 C 68.57239,35.717946 69.45455,33.016125 71.21888,31.036942 C 72.98319,29.057796 75.36275,28.068214 78.35755,28.068192 C 81.19608,28.068214 83.52029,29.077327 85.33021,31.095536 C 87.14008,33.113782 88.04503,35.796071 88.04505,39.142411 C 88.04503,42.592939 87.1531,45.31429 85.36927,47.306473 C 83.5854,49.298661 81.2091,50.294754 78.24036,50.294754 L 78.24036,50.294754 z M 78.31849,47.345536 C 82.35493,47.345538 84.37316,44.611166 84.37318,39.142411 C 84.37316,33.72576 82.34191,31.017429 78.27942,31.017411 C 74.25598,31.017429 72.24426,33.72576 72.24427,39.142411 C 72.24426,44.611166 74.269,47.345538 78.31849,47.345536 L 78.31849,47.345536 z M 102.67396,19.630692 C 104.05415,19.630722 104.74425,20.372909 104.74427,21.857254 C 104.74425,22.61249 104.53918,23.17564 104.12903,23.546707 C 103.71886,23.917827 103.23384,24.103374 102.67396,24.103348 C 101.28072,24.103374 100.5841,23.354677 100.58411,21.857254 C 100.5841,20.372909 101.28072,19.630722 102.67396,19.630692 L 102.67396,19.630692 z M 100.87708,31.271317 L 95.62318,30.861161 L 95.62318,28.458817 L 104.43177,28.458817 L 104.43177,47.111161 L 111.30677,47.501786 L 111.30677,49.904129 L 94.15833,49.904129 L 94.15833,47.501786 L 100.87708,47.111161 L 100.87708,31.271317 z M 131.81458,47.033036 L 131.65833,47.033036 C 130.18696,49.207515 128.09061,50.294754 125.36927,50.294754 C 122.75207,50.294754 120.69804,49.321448 119.20716,47.374832 C 117.71627,45.428222 116.97083,42.710126 116.97083,39.220536 C 116.97083,35.704925 117.71953,32.967297 119.21692,31.007645 C 120.71431,29.04803 122.76509,28.068214 125.36927,28.068192 C 128.05155,28.068214 130.1479,29.109879 131.65833,31.193192 L 131.89271,31.193192 C 131.73644,29.513525 131.65831,28.458838 131.65833,28.029129 L 131.65833,19.513504 L 135.21302,19.513504 L 135.21302,49.904129 L 132.34192,49.904129 L 131.81458,47.033036 z M 131.65833,40.021317 L 131.65833,39.220536 C 131.65831,36.26482 131.20584,34.158702 130.30091,32.902176 C 129.39595,31.645684 127.95389,31.017429 125.97474,31.017411 C 122.43306,31.017429 120.66223,33.764823 120.66224,39.259598 C 120.66223,44.650228 122.44608,47.345538 126.0138,47.345536 C 127.99295,47.345538 129.41548,46.769367 130.28138,45.61702 C 131.14725,44.464682 131.60623,42.599449 131.65833,40.021317 L 131.65833,40.021317 z M 165.01771,48.947098 L 165.01771,45.470536 C 167.7651,46.590331 170.46041,47.150226 173.10364,47.150223 C 177.66092,47.150226 179.93956,45.587727 179.93958,42.462723 C 179.93956,41.108565 179.48058,40.0669 178.56263,39.337723 C 177.64464,38.608568 175.78592,37.742683 172.98646,36.740067 C 170.27811,35.78956 168.33476,34.653494 167.15638,33.331864 C 165.97799,32.010267 165.3888,30.294774 165.3888,28.185379 C 165.3888,25.919778 166.22538,24.145692 167.89857,22.863114 C 169.57174,21.58059 171.86665,20.939315 174.78333,20.939286 C 177.76509,20.939315 180.47342,21.447127 182.90833,22.462723 L 181.65833,25.665848 C 179.14529,24.650248 176.80155,24.142436 174.62708,24.142411 C 170.81197,24.142436 168.90442,25.503112 168.90442,28.224442 C 168.90442,29.552587 169.33085,30.620294 170.18372,31.427567 C 171.03658,32.234876 172.79764,33.100761 175.46692,34.025223 C 178.67003,35.171071 180.8087,36.352711 181.88294,37.570145 C 182.95714,38.787604 183.49425,40.353358 183.49427,42.267411 C 183.49425,44.767416 182.59256,46.730304 180.78919,48.156082 C 178.98579,49.581864 176.42394,50.294754 173.10364,50.294754 C 169.65312,50.294754 166.95781,49.845536 165.01771,48.947098 L 165.01771,48.947098 z M 203.72864,49.904129 L 203.00599,46.935379 L 202.84974,46.935379 C 201.84712,48.198402 200.81847,49.074052 199.7638,49.562332 C 198.7091,50.050614 197.34842,50.294754 195.68177,50.294754 C 193.55937,50.294754 191.89596,49.734859 190.69153,48.615067 C 189.4871,47.495278 188.88489,45.926269 188.88489,43.908036 C 188.88489,39.585129 192.2052,37.319507 198.84583,37.111161 L 202.81068,36.974442 L 202.81068,35.626786 C 202.81066,32.553886 201.22212,31.017429 198.04505,31.017411 C 196.13098,31.017429 193.99556,31.551283 191.6388,32.618973 L 190.40833,29.943192 C 192.96041,28.693213 195.45389,28.068214 197.8888,28.068192 C 200.84451,28.068214 202.98318,28.634619 204.30482,29.767411 C 205.62641,30.900242 206.28722,32.716647 206.28724,35.216629 L 206.28724,49.904129 L 203.72864,49.904129 z M 202.77161,39.415848 L 199.60755,39.552567 C 197.05546,39.656744 195.24556,40.057134 194.17786,40.753739 C 193.11015,41.450362 192.57629,42.514814 192.5763,43.947098 C 192.57629,46.26481 193.87838,47.423663 196.48255,47.423661 C 198.3966,47.423663 199.92329,46.893065 201.06263,45.831864 C 202.20194,44.770671 202.7716,43.276532 202.77161,41.349442 L 202.77161,39.415848 z M 227.55677,49.904129 L 227.55677,36.095536 C 227.55675,32.710136 226.00727,31.017429 222.90833,31.017411 C 218.91093,31.017429 216.91223,33.608573 216.91224,38.790848 L 216.91224,49.904129 L 213.35755,49.904129 L 213.35755,28.458817 L 216.22864,28.458817 L 216.75599,31.349442 L 216.9513,31.349442 C 218.29244,29.161963 220.47994,28.068214 223.5138,28.068192 C 228.57889,28.068214 231.11144,30.678888 231.11146,35.900223 L 231.11146,49.904129 L 227.55677,49.904129 z M 238.18177,48.947098 L 238.18177,45.704911 C 240.69478,46.824705 243.10363,47.384601 245.40833,47.384598 C 248.98905,47.384601 250.77941,46.329914 250.77942,44.220536 C 250.77941,43.478355 250.4604,42.833824 249.82239,42.286942 C 249.18436,41.740075 247.71301,41.049972 245.40833,40.216629 C 242.37447,39.083828 240.46366,38.045417 239.67591,37.101395 C 238.88814,36.157398 238.49426,35.040863 238.49427,33.751786 C 238.49426,31.98097 239.22018,30.590998 240.672,29.581864 C 242.12382,28.57277 244.13228,28.068214 246.69739,28.068192 C 249.2755,28.068214 251.67785,28.549984 253.90442,29.513504 L 252.73255,32.423661 C 250.36274,31.486179 248.28592,31.017429 246.50208,31.017411 C 243.42916,31.017429 241.8927,31.883314 241.89271,33.615067 C 241.8927,34.409353 242.22147,35.044118 242.87903,35.519364 C 243.53658,35.994638 245.05025,36.655445 247.42005,37.501786 C 250.16743,38.504401 251.9936,39.490728 252.89857,40.46077 C 253.80349,41.430831 254.25597,42.61898 254.25599,44.025223 C 254.25597,45.978352 253.49425,47.511554 251.97083,48.624832 C 250.44738,49.738114 248.29243,50.294754 245.50599,50.294754 C 242.27681,50.294754 239.83541,49.845536 238.18177,48.947098 L 238.18177,48.947098 z M 292.5763,49.904129 L 287.14661,24.904129 L 286.99036,24.904129 C 287.22473,28.367693 287.34192,31.010919 287.34193,32.833817 L 287.34193,49.904129 L 284.39271,49.904129 L 284.39271,21.349442 L 289.21693,21.349442 L 294.06068,44.630692 L 294.17786,44.630692 L 299.06068,21.349442 L 303.98255,21.349442 L 303.98255,49.904129 L 300.99427,49.904129 L 300.99427,32.579911 C 300.99425,31.251804 301.0854,28.706234 301.26771,24.943192 L 301.11146,24.943192 L 295.58411,49.904129 L 292.5763,49.904129 z M 318.08411,50.294754 C 315.2716,50.294754 312.95715,49.282385 311.14075,47.257645 C 309.32434,45.23291 308.41614,42.527835 308.41614,39.142411 C 308.41614,35.717946 309.2983,33.016125 311.06263,31.036942 C 312.82694,29.057796 315.2065,28.068214 318.2013,28.068192 C 321.03983,28.068214 323.36404,29.077327 325.17396,31.095536 C 326.98383,33.113782 327.88878,35.796071 327.8888,39.142411 C 327.88878,42.592939 326.99685,45.31429 325.21302,47.306473 C 323.42915,49.298661 321.05285,50.294754 318.08411,50.294754 L 318.08411,50.294754 z M 318.16224,47.345536 C 322.19868,47.345538 324.21691,44.611166 324.21693,39.142411 C 324.21691,33.72576 322.18566,31.017429 318.12318,31.017411 C 314.09973,31.017429 312.08801,33.72576 312.08802,39.142411 C 312.08801,44.611166 314.11275,47.345538 318.16224,47.345536 L 318.16224,47.345536 z M 347.47864,49.904129 L 347.47864,36.095536 C 347.47863,32.710136 345.92915,31.017429 342.83021,31.017411 C 338.8328,31.017429 336.83411,33.608573 336.83411,38.790848 L 336.83411,49.904129 L 333.27943,49.904129 L 333.27943,28.458817 L 336.15052,28.458817 L 336.67786,31.349442 L 336.87318,31.349442 C 338.21431,29.161963 340.40181,28.068214 343.43568,28.068192 C 348.50076,28.068214 351.03331,30.678888 351.03333,35.900223 L 351.03333,49.904129 L 347.47864,49.904129 z M 366.05286,50.294754 C 363.24035,50.294754 360.9259,49.282385 359.1095,47.257645 C 357.29309,45.23291 356.38489,42.527835 356.38489,39.142411 C 356.38489,35.717946 357.26705,33.016125 359.03138,31.036942 C 360.79569,29.057796 363.17525,28.068214 366.17005,28.068192 C 369.00858,28.068214 371.33279,29.077327 373.14271,31.095536 C 374.95258,33.113782 375.85753,35.796071 375.85755,39.142411 C 375.85753,42.592939 374.9656,45.31429 373.18177,47.306473 C 371.3979,49.298661 369.0216,50.294754 366.05286,50.294754 L 366.05286,50.294754 z M 366.13099,47.345536 C 370.16743,47.345538 372.18566,44.611166 372.18568,39.142411 C 372.18566,33.72576 370.15441,31.017429 366.09193,31.017411 C 362.06848,31.017429 360.05676,33.72576 360.05677,39.142411 C 360.05676,44.611166 362.0815,47.345538 366.13099,47.345536 L 366.13099,47.345536 z"
       id="flowRoot2413"
       style="font-size:40px;font-style:normal;font-variant:normal;font-weight:normal;font-stretch:normal;text-align:start;line-height:125%;writing-mode:lr-tb;text-anchor:start;fill:#000000;fill-opacity:1;stroke:none;stroke-width:1px;stroke-linecap:butt;stroke-linejoin:miter;stroke-opacity:1;font-family:Droid Sans Mono;-inkscape-font-specification:Droid Sans Mono" />
    <path
       d="M 47.30423,130.39234 L 43.92923,119.77515 L 32.42142,119.77515 L 28.99954,130.39234 L 24.54642,130.39234 L 35.86673,95.986086 L 40.43704,95.986086 L 51.80423,130.39234 L 47.30423,130.39234 z M 42.68704,115.90796 L 39.56985,105.97046 C 38.96046,104.03299 38.47609,102.26736 38.11673,100.67359 C 37.80422,102.22049 37.44484,103.65018 37.03861,104.96265 L 33.66361,115.90796 L 42.68704,115.90796 z M 73.53079,130.39234 L 72.66361,126.82984 L 72.47611,126.82984 C 71.27296,128.34546 70.03859,129.39624 68.77298,129.98218 C 67.50734,130.56812 65.87453,130.86109 63.87454,130.86109 C 61.32766,130.86109 59.33157,130.18921 57.88626,128.84546 C 56.44094,127.50171 55.71829,125.6189 55.71829,123.19702 C 55.71829,118.00954 59.70266,115.29079 67.67142,115.04077 L 72.42923,114.87671 L 72.42923,113.25952 C 72.42921,109.57204 70.52296,107.7283 66.71048,107.72827 C 64.41359,107.7283 61.8511,108.36892 59.02298,109.65015 L 57.54642,106.43921 C 60.60891,104.93924 63.60109,104.18924 66.52298,104.18921 C 70.06984,104.18924 72.63624,104.86892 74.2222,106.22827 C 75.80811,107.58767 76.60108,109.76736 76.60111,112.76734 L 76.60111,130.39234 L 73.53079,130.39234 z M 72.38235,117.8064 L 68.58548,117.97046 C 65.52297,118.09547 63.35109,118.57594 62.06985,119.41187 C 60.7886,120.24782 60.14797,121.52516 60.14798,123.2439 C 60.14797,126.02515 61.71047,127.41578 64.83548,127.41577 C 67.13234,127.41578 68.96437,126.77906 70.33157,125.50562 C 71.69874,124.23219 72.38234,122.43922 72.38235,120.12671 L 72.38235,117.8064 z"
       id="flowRoot2429"
       style="font-size:48px;font-style:normal;font-variant:normal;font-weight:normal;font-stretch:normal;text-align:start;line-height:125%;writing-mode:lr-tb;text-anchor:start;fill:#000000;fill-opacity:1;stroke:none;stroke-width:1px;stroke-linecap:butt;stroke-linejoin:miter;stroke-opacity:1;font-family:Droid Sans Mono;-inkscape-font-specification:Droid Sans Mono" />
    <path
       d="M 47.71109,193.78215 L 42.67203,193.78215 L 29.07828,165.42277 L 28.89078,165.42277 C 29.17202,169.75092 29.31265,173.00873 29.31265,175.19621 L 29.31265,193.78215 L 25.2814,193.78215 L 25.2814,159.51652 L 30.27359,159.51652 L 43.82047,187.73527 L 43.96109,187.73527 C 43.74232,183.00091 43.63294,179.84466 43.63297,178.26652 L 43.63297,159.51652 L 47.71109,159.51652 L 47.71109,193.78215 z M 71.68765,193.78215 L 71.68765,177.21184 C 71.68763,173.14936 69.82826,171.11811 66.10953,171.11809 C 61.31264,171.11811 58.91421,174.22748 58.91421,180.44621 L 58.91421,193.78215 L 54.64859,193.78215 L 54.64859,168.04777 L 58.0939,168.04777 L 58.72671,171.51652 L 58.96109,171.51652 C 60.57046,168.89155 63.19545,167.57905 66.83609,167.57902 C 72.91419,167.57905 75.95325,170.71186 75.95328,176.97746 L 75.95328,193.78215 L 71.68765,193.78215 z"
       id="flowRoot2437"
       style="font-size:48px;font-style:normal;font-variant:normal;font-weight:normal;font-stretch:normal;text-align:start;line-height:125%;writing-mode:lr-tb;text-anchor:start;fill:#000000;fill-opacity:1;stroke:none;stroke-width:1px;stroke-linecap:butt;stroke-linejoin:miter;stroke-opacity:1;font-family:Droid Sans Mono;-inkscape-font-specification:Droid Sans Mono" />
    <path
       d="M 126.34811,130.39234 L 106.61374,130.39234 L 106.61374,96.126711 L 126.34811,96.126711 L 126.34811,99.970461 L 110.97311,99.970461 L 110.97311,110.56421 L 125.43405,110.56421 L 125.43405,114.36109 L 110.97311,114.36109 L 110.97311,126.54859 L 126.34811,126.54859 L 126.34811,130.39234 z M 155.99655,118.34546 L 137.85593,118.34546 C 137.98092,124.20484 140.66841,127.13453 145.91843,127.13452 C 148.96528,127.13453 151.8559,126.54078 154.5903,125.35327 L 154.5903,129.10327 C 151.99653,130.27515 149.15278,130.86109 146.05905,130.86109 C 142.23091,130.86109 139.16842,129.69312 136.87155,127.35718 C 134.57467,125.02125 133.42623,121.80641 133.42624,117.71265 C 133.42623,113.55642 134.48483,110.26345 136.60202,107.83374 C 138.7192,105.40408 141.55123,104.18924 145.09811,104.18921 C 148.41059,104.18924 151.05512,105.23611 153.03171,107.32984 C 155.00824,109.42361 155.99652,112.21267 155.99655,115.69702 L 155.99655,118.34546 z M 137.94967,114.87671 L 151.37936,114.87671 C 151.37934,110.11111 149.25434,107.7283 145.00436,107.72827 C 140.70748,107.7283 138.35592,110.11111 137.94967,114.87671 L 137.94967,114.87671 z"
       id="flowRoot2445"
       style="font-size:48px;font-style:normal;font-variant:normal;font-weight:normal;font-stretch:normal;text-align:start;line-height:125%;writing-mode:lr-tb;text-anchor:start;fill:#000000;fill-opacity:1;stroke:none;stroke-width:1px;stroke-linecap:butt;stroke-linejoin:miter;stroke-opacity:1;font-family:Droid Sans Mono;-inkscape-font-specification:Droid Sans Mono" />
    <path
       d="M 121.73093,193.29646 C 123.05903,196.10895 125.23871,198.53864 128.26999,200.58552 L 125.43405,203.91364 C 121.74653,201.24176 119.18403,198.11676 117.74655,194.53864 C 117.18403,194.63239 116.59028,194.67927 115.9653,194.67927 C 107.65279,194.67927 103.49655,188.78084 103.49655,176.98396 C 103.49655,165.26523 107.66842,159.40587 116.01217,159.40583 C 120.01216,159.40587 123.07856,160.93321 125.21139,163.98786 C 127.34418,167.04258 128.41059,171.39023 128.41061,177.03083 C 128.41059,185.24959 126.18403,190.67146 121.73093,193.29646 L 121.73093,193.29646 z M 115.9653,190.85896 C 118.66841,190.85896 120.64887,189.72615 121.90671,187.46052 C 123.1645,185.1949 123.7934,181.71834 123.79343,177.03083 C 123.7934,172.29648 123.15668,168.81601 121.88327,166.58942 C 120.60981,164.36289 118.65278,163.24961 116.01217,163.24958 C 110.74654,163.24961 108.11373,167.84336 108.11374,177.03083 C 108.11373,186.24959 110.73092,190.85896 115.9653,190.85896 L 115.9653,190.85896 z M 151.14499,171.94489 L 151.33249,171.94489 L 151.9653,168.47614 L 155.41061,168.47614 L 155.41061,205.74177 L 151.14499,205.74177 L 151.14499,194.74958 C 151.14497,194.10896 151.23872,192.78083 151.42624,190.76521 L 151.14499,190.76521 C 149.37934,193.37458 146.86372,194.67927 143.59811,194.67927 C 140.45748,194.67927 137.99264,193.5113 136.20358,191.17536 C 134.41451,188.83943 133.51998,185.57771 133.51999,181.39021 C 133.51998,177.17147 134.41842,173.88632 136.2153,171.53474 C 138.01217,169.1832 140.4731,168.00742 143.59811,168.00739 C 146.83247,168.00742 149.34809,169.31992 151.14499,171.94489 L 151.14499,171.94489 z M 151.14499,182.35114 L 151.14499,181.39021 C 151.14497,177.84335 150.602,175.31601 149.51608,173.80817 C 148.43013,172.30038 146.69966,171.54648 144.32467,171.54646 C 140.07467,171.54648 137.94967,174.84335 137.94967,181.43708 C 137.94967,187.90584 140.09029,191.14021 144.37155,191.14021 C 146.74653,191.14021 148.45356,190.4488 149.49264,189.06599 C 150.53169,187.68318 151.08247,185.4449 151.14499,182.35114 L 151.14499,182.35114 z"
       id="flowRoot2457"
       style="font-size:48px;font-style:normal;font-variant:normal;font-weight:normal;font-stretch:normal;text-align:start;line-height:125%;writing-mode:lr-tb;text-anchor:start;fill:#000000;fill-opacity:1;stroke:none;stroke-width:1px;stroke-linecap:butt;stroke-linejoin:miter;stroke-opacity:1;font-family:Droid Sans Mono;-inkscape-font-specification:Droid Sans Mono" />
    <path
       d="M 195.30124,112.29859 L 205.19187,112.29859 L 205.19187,129.10327 C 202.14497,130.27515 198.86372,130.86109 195.34811,130.86109 C 191.25435,130.86109 188.05514,129.30249 185.75046,126.1853 C 183.44577,123.06813 182.29342,118.74391 182.29343,113.21265 C 182.29342,107.7283 183.55905,103.42752 186.0903,100.3103 C 188.62154,97.19315 192.10591,95.634558 196.54343,95.634524 C 199.54341,95.634558 202.24653,96.306433 204.6528,97.650149 L 202.9653,101.44702 C 200.68403,100.13455 198.49653,99.478304 196.4028,99.478274 C 193.40279,99.478304 191.06685,100.69315 189.39499,103.1228 C 187.72311,105.55252 186.88717,108.93142 186.88718,113.25952 C 186.88717,122.44703 189.96529,127.04078 196.12155,127.04077 C 197.63716,127.04078 199.21528,126.81421 200.85593,126.36109 L 200.85593,116.14234 L 195.30124,116.14234 L 195.30124,112.29859 z M 234.72311,104.65796 L 234.72311,107.3064 L 230.12937,107.93921 C 231.14497,109.26736 231.65278,110.93142 231.6528,112.9314 C 231.65278,115.44704 230.82075,117.45094 229.15671,118.94312 C 227.49263,120.43532 225.17622,121.18141 222.20749,121.1814 C 221.3481,121.18141 220.67623,121.13453 220.19187,121.04077 C 218.62935,121.91578 217.84811,122.95484 217.84811,124.15796 C 217.84811,125.47047 219.10592,126.12671 221.62155,126.12671 L 226.00437,126.12671 C 228.72309,126.12671 230.80122,126.72828 232.23874,127.9314 C 233.67621,129.13452 234.39496,130.85327 234.39499,133.08765 C 234.39496,138.97826 229.98091,141.92357 221.1528,141.92359 C 217.74654,141.92357 215.1567,141.29467 213.38327,140.03687 C 211.60983,138.77905 210.72311,137.01733 210.72311,134.75171 C 210.72311,131.43921 212.59811,129.32984 216.34811,128.42359 C 214.84811,127.68921 214.09811,126.48609 214.09811,124.81421 C 214.09811,123.06422 215.13717,121.56422 217.2153,120.31421 C 215.82467,119.7361 214.73092,118.77907 213.93405,117.44312 C 213.13717,116.10719 212.73874,114.65016 212.73874,113.07202 C 212.73874,110.22829 213.57077,108.03689 215.23483,106.4978 C 216.89889,104.95877 219.26998,104.18924 222.34811,104.18921 C 223.69185,104.18924 224.86372,104.34549 225.86374,104.65796 L 234.72311,104.65796 z M 222.25437,118.25171 C 225.73872,118.25172 227.48091,116.45485 227.48093,112.86109 C 227.48091,109.12673 225.7231,107.25955 222.20749,107.25952 C 218.69185,107.25955 216.93404,109.15017 216.93405,112.9314 C 216.93404,116.47829 218.70748,118.25172 222.25437,118.25171 L 222.25437,118.25171 z M 224.55124,129.97046 L 220.14499,129.97046 C 216.55123,129.97046 214.75436,131.51734 214.75437,134.61109 C 214.75436,137.32983 216.87154,138.6892 221.10593,138.68921 C 227.27778,138.6892 230.36372,136.94702 230.36374,133.46265 C 230.36372,132.08765 229.97309,131.16187 229.19187,130.6853 C 228.41059,130.20874 226.86372,129.97046 224.55124,129.97046 L 224.55124,129.97046 z"
       id="flowRoot2465"
       style="font-size:48px;font-style:normal;font-variant:normal;font-weight:normal;font-stretch:normal;text-align:start;line-height:125%;writing-mode:lr-tb;text-anchor:start;fill:#000000;fill-opacity:1;stroke:none;stroke-width:1px;stroke-linecap:butt;stroke-linejoin:miter;stroke-opacity:1;font-family:Droid Sans Mono;-inkscape-font-specification:Droid Sans Mono" />
    <path
       d="M 188.29343,180.05427 L 188.29343,194.21052 L 183.91061,194.21052 L 183.91061,159.94489 L 192.2778,159.94489 C 200.40278,159.94493 204.46528,163.18711 204.4653,169.67146 C 204.46528,174.15585 202.20747,177.21835 197.69187,178.85896 L 206.99655,194.21052 L 201.86374,194.21052 L 193.66061,180.05427 L 188.29343,180.05427 z M 188.29343,176.35114 L 192.13718,176.35114 C 194.80904,176.35116 196.77779,175.83554 198.04343,174.80427 C 199.30903,173.77304 199.94184,172.13241 199.94187,169.88239 C 199.94184,167.67929 199.31685,166.09336 198.06687,165.12458 C 196.81685,164.15586 194.80122,163.67149 192.01999,163.67146 L 188.29343,163.67146 L 188.29343,176.35114 z M 233.1528,169.06208 L 232.00437,172.95271 C 230.08247,172.2496 228.33247,171.89804 226.75437,171.89802 C 224.20747,171.89804 222.24263,172.6207 220.85983,174.06599 C 219.47701,175.51132 218.7856,177.60116 218.78561,180.33552 L 218.78561,194.21052 L 214.51999,194.21052 L 214.51999,168.47614 L 217.98874,168.47614 L 218.50437,173.18708 L 218.69187,173.18708 C 219.87935,171.32773 221.15279,169.99961 222.51218,169.20271 C 223.87154,168.40586 225.54341,168.00742 227.5278,168.00739 C 229.37153,168.00742 231.24653,168.35898 233.1528,169.06208 L 233.1528,169.06208 z"
       id="flowRoot2481"
       style="font-size:48px;font-style:normal;font-variant:normal;font-weight:normal;font-stretch:normal;text-align:start;line-height:125%;writing-mode:lr-tb;text-anchor:start;fill:#000000;fill-opacity:1;stroke:none;stroke-width:1px;stroke-linecap:butt;stroke-linejoin:miter;stroke-opacity:1;font-family:Droid Sans Mono;-inkscape-font-specification:Droid Sans Mono" />
    <path
       d="M 355.60435,205.60303 L 351.99107,190.75928 L 351.20982,190.75928 C 346.19672,197.07439 341.0535,201.45264 335.78014,203.89404 C 330.50664,206.33545 323.70326,207.55615 315.36998,207.55615 C 304.75796,207.55615 296.44091,204.75667 290.41881,199.15771 C 284.39666,193.55877 281.38559,185.71372 281.3856,175.62256 C 281.38559,154.00803 297.98714,142.67991 331.19029,141.63818 L 351.01451,140.95459 L 351.01451,134.21631 C 351.01443,118.85181 343.07173,111.16952 327.18638,111.16943 C 317.61602,111.16952 306.93895,113.8388 295.15514,119.17725 L 289.00279,105.79834 C 301.76317,99.548442 314.23061,96.423445 326.40514,96.423336 C 341.18371,96.423445 351.87706,99.255474 358.48521,104.91943 C 365.09319,110.58359 368.39722,119.66561 368.39732,132.16553 L 368.39732,205.60303 L 355.60435,205.60303 z M 350.8192,153.16162 L 334.99888,153.84521 C 322.23841,154.3661 313.18894,156.36805 307.85045,159.85107 C 302.51187,163.33419 299.8426,168.65645 299.84264,175.81787 C 299.8426,187.40643 306.35301,193.2007 319.37388,193.20068 C 328.94414,193.2007 336.57759,190.5477 342.27428,185.2417 C 347.97081,179.93573 350.81911,172.46504 350.8192,162.82959 L 350.8192,153.16162 z"
       id="flowRoot2489"
       style="font-size:200px;font-style:normal;font-variant:normal;font-weight:normal;font-stretch:normal;text-align:start;line-height:125%;writing-mode:lr-tb;text-anchor:start;fill:#ffffff;fill-opacity:1;stroke:none;stroke-width:1px;stroke-linecap:butt;stroke-linejoin:miter;stroke-opacity:1;font-family:Droid Sans Mono;-inkscape-font-specification:Droid Sans Mono" />
    <path
       d="M 90.66868,279.38273 C 80.97076,279.38273 76.1218,272.50122 76.1218,258.7382 C 76.1218,245.06635 80.98899,238.23042 90.72337,238.23038 C 95.39001,238.23042 98.96748,240.01232 101.45579,243.57609 C 103.94404,247.13992 105.18818,252.21218 105.18821,258.79288 C 105.18818,265.37363 103.93037,270.45044 101.41477,274.02335 C 98.89912,277.59627 95.3171,279.38273 90.66868,279.38273 L 90.66868,279.38273 z M 90.66868,274.9257 C 93.82231,274.9257 96.13285,273.60409 97.60032,270.96085 C 99.06774,268.31763 99.80147,264.26165 99.80149,258.79288 C 99.80147,253.26947 99.05863,249.20893 97.57298,246.61124 C 96.08728,244.01362 93.80408,242.71479 90.72337,242.71476 C 84.58013,242.71479 81.50852,248.07416 81.50852,258.79288 C 81.50852,269.5481 84.5619,274.9257 90.66868,274.9257 L 90.66868,274.9257 z M 116.69993,275.03507 L 116.3718,275.03507 C 116.59055,277.38664 116.69992,278.8632 116.69993,279.46476 L 116.69993,292.28898 L 111.72337,292.28898 L 111.72337,248.81241 L 115.7429,248.81241 L 116.48118,252.85929 L 116.69993,252.85929 C 118.70513,249.79682 121.64002,248.26557 125.50462,248.26554 C 129.16866,248.26557 132.04431,249.6282 134.13157,252.35343 C 136.21878,255.07871 137.2624,258.88405 137.26243,263.76945 C 137.2624,268.69133 136.21422,272.52401 134.1179,275.26749 C 132.02152,278.01098 129.15043,279.38273 125.50462,279.38273 C 121.73117,279.38273 118.79627,277.93351 116.69993,275.03507 L 116.69993,275.03507 z M 116.69993,262.64835 L 116.69993,263.76945 C 116.69992,267.90748 117.33338,270.85604 118.60032,272.61515 C 119.86724,274.37427 121.88611,275.25383 124.65696,275.25382 C 129.61527,275.25383 132.09444,271.40747 132.09446,263.71476 C 132.09444,256.16791 129.59704,252.39447 124.60227,252.39445 C 121.83143,252.39447 119.83989,253.19655 118.62766,254.8007 C 117.41541,256.40489 116.77284,259.02077 116.69993,262.64835 L 116.69993,262.64835 z M 168.8718,274.73429 L 168.8718,278.50773 C 166.50199,279.09106 164.20512,279.38273 161.98118,279.38273 C 155.38221,279.38273 152.08273,276.24731 152.08274,269.97648 L 152.08274,252.55851 L 144.78196,252.55851 L 144.78196,249.9882 L 152.08274,248.64835 L 154.18821,240.8007 L 157.0593,240.8007 L 157.0593,248.81241 L 169.03587,248.81241 L 169.03587,252.55851 L 157.0593,252.55851 L 157.0593,269.97648 C 157.05929,273.53117 158.80929,275.30851 162.3093,275.30851 C 164.00459,275.30851 166.19209,275.11711 168.8718,274.73429 L 168.8718,274.73429 z M 191.8679,236.45304 C 193.80017,236.45308 194.76632,237.49214 194.76634,239.57023 C 194.76632,240.62756 194.47921,241.41597 193.90501,241.93546 C 193.33077,242.45503 192.65173,242.71479 191.8679,242.71476 C 189.91736,242.71479 188.9421,241.66662 188.94212,239.57023 C 188.9421,237.49214 189.91736,236.45308 191.8679,236.45304 L 191.8679,236.45304 z M 189.35227,252.74991 L 181.9968,252.1757 L 181.9968,248.81241 L 194.32884,248.81241 L 194.32884,274.9257 L 203.95384,275.47257 L 203.95384,278.83585 L 179.94602,278.83585 L 179.94602,275.47257 L 189.35227,274.9257 L 189.35227,252.74991 z M 234.85227,278.83585 L 234.85227,259.50382 C 234.85225,256.84238 234.61071,254.99213 234.12766,253.95304 C 233.64457,252.914 232.83793,252.39447 231.70774,252.39445 C 230.12178,252.39447 228.96879,253.15098 228.24876,254.66398 C 227.52869,256.17702 227.16866,258.71087 227.16868,262.26554 L 227.16868,278.83585 L 222.76634,278.83585 L 222.76634,259.50382 C 222.76632,254.76426 221.627,252.39447 219.34837,252.39445 C 217.81711,252.39447 216.72336,253.11908 216.06712,254.56827 C 215.41086,256.01752 215.08274,258.92051 215.08274,263.27726 L 215.08274,278.83585 L 210.65306,278.83585 L 210.65306,248.81241 L 214.12571,248.81241 L 214.86399,252.85929 L 215.13743,252.85929 C 216.35878,249.79682 218.19081,248.26557 220.63352,248.26554 C 223.60486,248.26557 225.54627,249.92442 226.45774,253.2421 L 226.6218,253.2421 C 228.0072,249.92442 230.00329,248.26557 232.61009,248.26554 C 234.94339,248.26557 236.6387,249.10867 237.69602,250.79484 C 238.75328,252.48106 239.28193,255.29291 239.28196,259.23038 L 239.28196,278.83585 L 234.85227,278.83585 z M 259.02415,236.45304 C 260.95642,236.45308 261.92257,237.49214 261.92259,239.57023 C 261.92257,240.62756 261.63546,241.41597 261.06126,241.93546 C 260.48702,242.45503 259.80798,242.71479 259.02415,242.71476 C 257.07361,242.71479 256.09835,241.66662 256.09837,239.57023 C 256.09835,237.49214 257.07361,236.45308 259.02415,236.45304 L 259.02415,236.45304 z M 256.50852,252.74991 L 249.15306,252.1757 L 249.15306,248.81241 L 261.48509,248.81241 L 261.48509,274.9257 L 271.11009,275.47257 L 271.11009,278.83585 L 247.10227,278.83585 L 247.10227,275.47257 L 256.50852,274.9257 L 256.50852,252.74991 z M 303.84056,278.83585 L 280.27024,278.83585 L 280.27024,275.41788 L 298.31712,252.55851 L 281.17259,252.55851 L 281.17259,248.81241 L 303.34837,248.81241 L 303.34837,252.8046 L 285.65696,275.08976 L 303.84056,275.08976 L 303.84056,278.83585 z M 338.84055,264.78116 L 317.67649,264.78116 C 317.82232,271.61711 320.95773,275.03508 327.08274,275.03507 C 330.63741,275.03508 334.0098,274.34237 337.19993,272.95695 L 337.19993,277.33195 C 334.17386,278.69913 330.85616,279.38273 327.2468,279.38273 C 322.78064,279.38273 319.20773,278.0201 316.52805,275.29484 C 313.84836,272.56958 312.50852,268.81894 312.50852,264.04288 C 312.50852,259.19394 313.74354,255.35215 316.2136,252.51749 C 318.68364,249.68289 321.98768,248.26557 326.12571,248.26554 C 329.99027,248.26557 333.07556,249.48692 335.38157,251.9296 C 337.68753,254.37233 338.84053,257.62624 338.84055,261.69132 L 338.84055,264.78116 z M 317.78587,260.73429 L 333.45384,260.73429 C 333.45381,255.17442 330.97465,252.39447 326.01634,252.39445 C 321.0033,252.39447 318.25982,255.17442 317.78587,260.73429 L 317.78587,260.73429 z M 366.97727,274.81632 L 366.75852,274.81632 C 364.69861,277.86059 361.76371,279.38273 357.95384,279.38273 C 354.28976,279.38273 351.41411,278.0201 349.32688,275.29484 C 347.23964,272.56958 346.19602,268.76425 346.19602,263.87882 C 346.19602,258.95697 347.2442,255.12429 349.34055,252.38077 C 351.4369,249.63731 354.30799,248.26557 357.95384,248.26554 C 361.70902,248.26557 364.64392,249.7239 366.75852,252.64054 L 367.08665,252.64054 C 366.86787,250.28901 366.7585,248.81244 366.75852,248.21085 L 366.75852,236.28898 L 371.73509,236.28898 L 371.73509,278.83585 L 367.71555,278.83585 L 366.97727,274.81632 z M 366.75852,264.99991 L 366.75852,263.87882 C 366.7585,259.74082 366.12504,256.79226 364.85813,255.03312 C 363.59118,253.27403 361.57231,252.39447 358.80149,252.39445 C 353.84315,252.39447 351.36398,256.24082 351.36399,263.93351 C 351.36398,271.48039 353.86138,275.25383 358.85618,275.25382 C 361.62699,275.25383 363.61853,274.44718 364.83079,272.8339 C 366.043,271.22063 366.68558,268.6093 366.75852,264.99991 L 366.75852,264.99991 z"
       id="flowRoot3267"
       style="font-size:56px;font-style:normal;font-variant:normal;font-weight:normal;font-stretch:normal;text-align:start;line-height:125%;writing-mode:lr-tb;text-anchor:start;fill:#3dc0bb;fill-opacity:1;stroke:none;stroke-width:1px;stroke-linecap:butt;stroke-linejoin:miter;stroke-opacity:1;font-family:Droid Sans Mono;-inkscape-font-specification:Droid Sans Mono" />
    <path
       d="M 43.90698,355.27581 L 43.25659,352.60394 L 43.11597,352.60394 C 42.21361,353.74066 41.28783,354.52874 40.33862,354.96819 C 39.38939,355.40765 38.16478,355.62737 36.66479,355.62737 C 34.75463,355.62737 33.25756,355.12347 32.17358,354.11566 C 31.0896,353.10784 30.5476,351.69574 30.54761,349.87933 C 30.5476,345.98871 33.53588,343.94965 39.51245,343.76214 L 43.08081,343.63909 L 43.08081,342.4262 C 43.0808,339.66059 41.65111,338.27778 38.79175,338.27776 C 37.06908,338.27778 35.14721,338.75825 33.02612,339.71917 L 31.9187,337.31097 C 34.21557,336.18599 36.45971,335.62349 38.65112,335.62347 C 41.31127,335.62349 43.23607,336.13325 44.42554,337.15276 C 45.61497,338.17231 46.2097,339.80708 46.20972,342.05706 L 46.20972,355.27581 L 43.90698,355.27581 z M 43.04565,345.83636 L 40.198,345.95941 C 37.90111,346.05316 36.27221,346.41352 35.31128,347.04046 C 34.35034,347.66742 33.86987,348.62543 33.86987,349.91448 C 33.86987,352.00042 35.04174,353.04339 37.3855,353.04339 C 39.10814,353.04339 40.48216,352.56585 41.50757,351.61077 C 42.53294,350.6557 43.04564,349.31097 43.04565,347.57659 L 43.04565,345.83636 z M 55.73706,352.83245 L 55.52612,352.83245 L 54.87573,355.27581 L 52.53784,355.27581 L 52.53784,327.92425 L 55.73706,327.92425 L 55.73706,334.53362 C 55.73705,335.48286 55.69018,336.80708 55.59643,338.50628 L 55.73706,338.50628 C 56.99096,336.58442 58.87768,335.62349 61.39722,335.62347 C 63.75267,335.62349 65.6013,336.49946 66.94311,338.2514 C 68.28489,340.00336 68.95579,342.44965 68.95581,345.59026 C 68.95579,348.75433 68.28196,351.2182 66.93433,352.98187 C 65.58665,354.74554 63.74095,355.62737 61.39722,355.62737 C 58.97143,355.62737 57.08471,354.69573 55.73706,352.83245 L 55.73706,352.83245 z M 55.73706,345.59026 C 55.73705,348.25043 56.14428,350.14593 56.95874,351.27679 C 57.77318,352.40765 59.07104,352.97308 60.85229,352.97308 C 64.03978,352.97308 65.63353,350.50043 65.63354,345.55511 C 65.63353,340.70356 64.02806,338.27778 60.81714,338.27776 C 59.00072,338.27778 57.69994,338.82856 56.91479,339.93011 C 56.12963,341.03168 55.73705,342.9184 55.73706,345.59026 L 55.73706,345.59026 z M 89.99683,336.66058 L 88.90698,339.43792 C 87.14915,338.76997 85.57884,338.43598 84.19604,338.43597 C 79.84838,338.43598 77.67455,340.8559 77.67456,345.69573 C 77.67455,350.45355 79.78979,352.83245 84.02026,352.83245 C 85.86009,352.83245 87.74095,352.46917 89.66284,351.74261 L 89.66284,354.55511 C 88.09251,355.26995 86.16478,355.62737 83.87964,355.62737 C 80.86791,355.62737 78.53002,354.77483 76.86597,353.06976 C 75.2019,351.36468 74.36987,348.9184 74.36987,345.73089 C 74.36987,342.43793 75.21948,339.93012 76.9187,338.20745 C 78.61791,336.48481 81.00853,335.62349 84.09058,335.62347 C 86.1765,335.62349 88.14525,335.96919 89.99683,336.66058 L 89.99683,336.66058 z M 108.69995,352.69183 L 108.55933,352.69183 C 107.23509,354.64886 105.34838,355.62737 102.89917,355.62737 C 100.54369,355.62737 98.69506,354.7514 97.35327,352.99944 C 96.01147,351.2475 95.34057,348.80121 95.34058,345.66058 C 95.34057,342.49653 96.0144,340.03266 97.36206,338.26898 C 98.70971,336.50532 100.55541,335.62349 102.89917,335.62347 C 105.31322,335.62349 107.19994,336.56099 108.55933,338.43597 L 108.77026,338.43597 C 108.62962,336.92427 108.55931,335.97505 108.55933,335.58831 L 108.55933,327.92425 L 111.75854,327.92425 L 111.75854,355.27581 L 109.17456,355.27581 L 108.69995,352.69183 z M 108.55933,346.38128 L 108.55933,345.66058 C 108.55931,343.00043 108.15208,341.10493 107.33765,339.97405 C 106.52318,338.84321 105.22533,338.27778 103.44409,338.27776 C 100.25658,338.27778 98.66284,340.75043 98.66284,345.69573 C 98.66284,350.5473 100.2683,352.97308 103.47925,352.97308 C 105.26049,352.97308 106.54076,352.45452 107.32007,351.41741 C 108.09935,350.38031 108.51244,348.7016 108.55933,346.38128 L 108.55933,346.38128 z M 133.78393,346.24066 L 120.17847,346.24066 C 120.27221,350.63519 122.28783,352.83245 126.22534,352.83245 C 128.51048,352.83245 130.67845,352.38714 132.72925,351.49651 L 132.72925,354.30901 C 130.78392,355.18792 128.65111,355.62737 126.33081,355.62737 C 123.45971,355.62737 121.16283,354.7514 119.44019,352.99944 C 117.71753,351.2475 116.8562,348.83636 116.8562,345.76604 C 116.8562,342.64887 117.65014,340.17915 119.23804,338.35687 C 120.82592,336.53462 122.94994,335.62349 125.61011,335.62347 C 128.09447,335.62349 130.07786,336.40864 131.5603,337.97894 C 133.04271,339.54926 133.78392,341.64106 133.78393,344.25433 L 133.78393,346.24066 z M 120.24878,343.63909 L 130.32104,343.63909 C 130.32103,340.06489 128.72728,338.27778 125.53979,338.27776 C 122.31713,338.27778 120.55346,340.06489 120.24878,343.63909 L 120.24878,343.63909 z M 154.45581,338.38323 L 147.61792,338.38323 L 147.61792,355.27581 L 144.4187,355.27581 L 144.4187,338.38323 L 138.84643,338.38323 L 138.84643,336.44964 L 144.4187,335.86956 L 144.4187,334.18206 C 144.41869,331.92037 144.94604,330.27974 146.00073,329.26019 C 147.05541,328.24068 148.80736,327.73092 151.25659,327.73089 C 152.76829,327.73092 154.24485,327.93599 155.68628,328.34612 L 154.96558,330.8598 C 153.74681,330.5317 152.53392,330.36763 151.3269,330.36761 C 149.88548,330.36763 148.90697,330.6606 148.39136,331.24651 C 147.87572,331.83247 147.61791,332.79927 147.61792,334.14691 L 147.61792,335.97503 L 154.45581,335.97503 L 154.45581,338.38323 z M 177.48315,335.97503 L 177.48315,337.96136 L 174.03784,338.43597 C 174.79954,339.43208 175.1804,340.68012 175.18042,342.18011 C 175.1804,344.06684 174.55638,345.56977 173.30835,346.6889 C 172.06029,347.80804 170.32298,348.36762 168.09643,348.36761 C 167.45189,348.36762 166.94799,348.33246 166.58472,348.26214 C 165.41283,348.9184 164.8269,349.69769 164.8269,350.60003 C 164.8269,351.58441 165.77026,352.07659 167.65698,352.07659 L 170.94409,352.07659 C 172.98314,352.07659 174.54173,352.52777 175.61987,353.43011 C 176.69798,354.33245 177.23704,355.62151 177.23706,357.29729 C 177.23704,361.71526 173.9265,363.92424 167.30542,363.92425 C 164.75072,363.92424 162.80834,363.45256 161.47827,362.50921 C 160.14819,361.56584 159.48315,360.24456 159.48315,358.54534 C 159.48315,356.06097 160.8894,354.47894 163.7019,353.79925 C 162.5769,353.24847 162.0144,352.34613 162.0144,351.09222 C 162.0144,349.77972 162.7937,348.65472 164.35229,347.71722 C 163.30932,347.28363 162.48901,346.56586 161.89136,345.5639 C 161.2937,344.56196 160.99487,343.46918 160.99487,342.28558 C 160.99487,340.15278 161.61889,338.50923 162.86694,337.35491 C 164.11498,336.20063 165.8933,335.62349 168.2019,335.62347 C 169.2097,335.62349 170.08861,335.74067 170.83862,335.97503 L 177.48315,335.97503 z M 168.13159,346.17034 C 170.74486,346.17035 172.0515,344.8227 172.05151,342.12737 C 172.0515,339.32661 170.73314,337.92622 168.09643,337.9262 C 165.45971,337.92622 164.14135,339.34419 164.14136,342.18011 C 164.14135,344.84028 165.47143,346.17035 168.13159,346.17034 L 168.13159,346.17034 z M 169.85425,354.95941 L 166.54956,354.95941 C 163.85424,354.95941 162.50659,356.11956 162.50659,358.43987 C 162.50659,360.47893 164.09448,361.49846 167.27026,361.49847 C 171.89916,361.49846 174.21361,360.19182 174.21362,357.57854 C 174.21361,356.54729 173.92064,355.85296 173.33472,355.49554 C 172.74876,355.13812 171.58861,354.95941 169.85425,354.95941 L 169.85425,354.95941 z M 194.86792,355.27581 L 194.86792,342.84808 C 194.8679,339.80122 193.47337,338.27778 190.68433,338.27776 C 187.08666,338.27778 185.28784,340.60981 185.28784,345.27386 L 185.28784,355.27581 L 182.08862,355.27581 L 182.08862,327.92425 L 185.28784,327.92425 L 185.28784,336.04534 L 185.14722,338.57659 L 185.323,338.57659 C 186.53002,336.60786 188.49877,335.62349 191.22925,335.62347 C 195.78782,335.62349 198.06712,337.97309 198.06714,342.67229 L 198.06714,355.27581 L 194.86792,355.27581 z M 211.98901,328.02972 C 213.23119,328.02974 213.85228,328.69771 213.85229,330.03362 C 213.85228,330.71334 213.66771,331.22017 213.29858,331.55413 C 212.92943,331.88814 212.49291,332.05513 211.98901,332.05511 C 210.7351,332.05513 210.10814,331.3813 210.10815,330.03362 C 210.10814,328.69771 210.7351,328.02974 211.98901,328.02972 L 211.98901,328.02972 z M 210.37183,338.50628 L 205.64331,338.13714 L 205.64331,335.97503 L 213.57104,335.97503 L 213.57104,352.76214 L 219.75854,353.1137 L 219.75854,355.27581 L 204.32495,355.27581 L 204.32495,353.1137 L 210.37183,352.76214 L 210.37183,338.50628 z M 235.50854,328.02972 C 236.76244,328.02974 237.38939,328.69771 237.3894,330.03362 C 237.38939,331.3813 236.76244,332.05513 235.50854,332.05511 C 234.26635,332.05513 233.64525,331.3813 233.64526,330.03362 C 233.64525,328.69771 234.26635,328.02974 235.50854,328.02972 L 235.50854,328.02972 z M 224.82104,363.30901 L 224.82104,360.60198 C 226.39135,361.05901 228.08471,361.28752 229.90112,361.28753 C 231.27221,361.28752 232.34154,360.95354 233.10913,360.28558 C 233.8767,359.6176 234.26049,358.69182 234.2605,357.50823 L 234.2605,338.50628 L 226.87769,338.13714 L 226.87769,335.97503 L 237.45972,335.97503 L 237.45972,357.33245 C 237.4597,359.44182 236.79759,361.0678 235.47339,362.21038 C 234.14916,363.35295 232.28002,363.92424 229.86597,363.92425 C 227.94409,363.92424 226.26245,363.71916 224.82104,363.30901 L 224.82104,363.30901 z M 250.76636,345.55511 L 253.1394,342.88323 L 260.08276,335.97503 L 263.98511,335.97503 L 255.30151,344.32464 L 264.47729,355.27581 L 260.73315,355.27581 L 253.24487,346.41644 L 250.97729,347.85784 L 250.97729,355.27581 L 247.81323,355.27581 L 247.81323,327.92425 L 250.97729,327.92425 L 250.97729,340.47503 L 250.69604,345.55511 L 250.76636,345.55511 z M 274.97143,330.43792 L 270.2605,330.06878 L 270.2605,327.92425 L 278.18823,327.92425 L 278.18823,352.76214 L 284.37573,353.1137 L 284.37573,355.27581 L 268.92456,355.27581 L 268.92456,353.1137 L 274.97143,352.76214 L 274.97143,330.43792 z M 304.37964,355.27581 L 304.37964,342.84808 C 304.37962,341.13715 304.22435,339.9477 303.91382,339.27972 C 303.60325,338.61176 303.0847,338.27778 302.35815,338.27776 C 301.33861,338.27778 300.5974,338.76411 300.13452,339.73675 C 299.67162,340.70942 299.44017,342.33832 299.44018,344.62347 L 299.44018,355.27581 L 296.61011,355.27581 L 296.61011,342.84808 C 296.6101,339.80122 295.87768,338.27778 294.41284,338.27776 C 293.42846,338.27778 292.72534,338.7436 292.30347,339.67523 C 291.88159,340.60688 291.67065,342.47309 291.67065,345.27386 L 291.67065,355.27581 L 288.823,355.27581 L 288.823,335.97503 L 291.05542,335.97503 L 291.53003,338.57659 L 291.70581,338.57659 C 292.49096,336.60786 293.66869,335.62349 295.23901,335.62347 C 297.14916,335.62349 298.3972,336.68989 298.98315,338.82269 L 299.08862,338.82269 C 299.97924,336.68989 301.26244,335.62349 302.93823,335.62347 C 304.43822,335.62349 305.52806,336.16548 306.20776,337.24944 C 306.88743,338.33344 307.22727,340.14106 307.22729,342.67229 L 307.22729,355.27581 L 304.37964,355.27581 z M 43.76636,400.27581 L 43.76636,387.84808 C 43.76634,384.80122 42.37181,383.27778 39.58276,383.27776 C 35.9851,383.27778 34.18627,385.60981 34.18628,390.27386 L 34.18628,400.27581 L 30.98706,400.27581 L 30.98706,380.97503 L 33.57104,380.97503 L 34.04565,383.57659 L 34.22143,383.57659 C 35.42846,381.60786 37.39721,380.62349 40.12769,380.62347 C 44.68626,380.62349 46.96556,382.97309 46.96558,387.67229 L 46.96558,400.27581 L 43.76636,400.27581 z M 60.48315,400.62737 C 57.9519,400.62737 55.86889,399.71624 54.23413,397.89398 C 52.59936,396.07171 51.78198,393.63715 51.78198,390.59026 C 51.78198,387.50825 52.57592,385.07661 54.16382,383.29534 C 55.7517,381.51411 57.8933,380.62349 60.58862,380.62347 C 63.1433,380.62349 65.23509,381.53169 66.86401,383.34808 C 68.4929,385.1645 69.30735,387.57856 69.30737,390.59026 C 69.30735,393.69574 68.50462,396.14496 66.89917,397.93792 C 65.29369,399.73089 63.15502,400.62737 60.48315,400.62737 L 60.48315,400.62737 z M 60.55347,397.97308 C 64.18626,397.97308 66.00267,395.51214 66.00269,390.59026 C 66.00267,385.71528 64.17455,383.27778 60.51831,383.27776 C 56.89721,383.27778 55.08666,385.71528 55.08667,390.59026 C 55.08666,395.51214 56.90893,397.97308 60.55347,397.97308 L 60.55347,397.97308 z M 77.323,397.83245 L 77.11206,397.83245 C 77.25268,399.34417 77.32299,400.29339 77.323,400.68011 L 77.323,408.92425 L 74.12378,408.92425 L 74.12378,380.97503 L 76.70776,380.97503 L 77.18237,383.57659 L 77.323,383.57659 C 78.61205,381.60786 80.49877,380.62349 82.98315,380.62347 C 85.33861,380.62349 87.18724,381.49946 88.52905,383.2514 C 89.87083,385.00336 90.54173,387.44965 90.54175,390.59026 C 90.54173,393.75433 89.8679,396.2182 88.52026,397.98187 C 87.17259,399.74554 85.32689,400.62737 82.98315,400.62737 C 80.55736,400.62737 78.67065,399.69573 77.323,397.83245 L 77.323,397.83245 z M 77.323,389.86956 L 77.323,390.59026 C 77.32299,393.25043 77.73022,395.14593 78.54468,396.27679 C 79.35912,397.40765 80.65697,397.97308 82.43823,397.97308 C 85.62572,397.97308 87.21947,395.50043 87.21948,390.55511 C 87.21947,385.70356 85.614,383.27778 82.40308,383.27776 C 80.62182,383.27778 79.34154,383.79341 78.56226,384.82464 C 77.78295,385.8559 77.36987,387.53754 77.323,389.86956 L 77.323,389.86956 z M 108.55933,383.57659 L 108.69995,383.57659 L 109.17456,380.97503 L 111.75854,380.97503 L 111.75854,408.92425 L 108.55933,408.92425 L 108.55933,400.68011 C 108.55931,400.19964 108.62962,399.20355 108.77026,397.69183 L 108.55933,397.69183 C 107.23509,399.64886 105.34838,400.62737 102.89917,400.62737 C 100.54369,400.62737 98.69506,399.7514 97.35327,397.99944 C 96.01147,396.2475 95.34057,393.80121 95.34058,390.66058 C 95.34057,387.49653 96.0144,385.03266 97.36206,383.26898 C 98.70971,381.50532 100.55541,380.62349 102.89917,380.62347 C 105.32494,380.62349 107.21166,381.60786 108.55933,383.57659 L 108.55933,383.57659 z M 108.55933,391.38128 L 108.55933,390.66058 C 108.55931,388.00043 108.15208,386.10493 107.33765,384.97405 C 106.52318,383.84321 105.22533,383.27778 103.44409,383.27776 C 100.25658,383.27778 98.66284,385.75043 98.66284,390.69573 C 98.66284,395.5473 100.2683,397.97308 103.47925,397.97308 C 105.26049,397.97308 106.54076,397.45452 107.32007,396.41741 C 108.09935,395.38031 108.51244,393.7016 108.55933,391.38128 L 108.55933,391.38128 z M 133.13354,381.41448 L 132.27222,384.33245 C 130.83079,383.80512 129.5183,383.54145 128.33472,383.54144 C 126.42455,383.54145 124.95092,384.08344 123.91382,385.16741 C 122.8767,386.25141 122.35815,387.81879 122.35815,389.86956 L 122.35815,400.27581 L 119.15893,400.27581 L 119.15893,380.97503 L 121.7605,380.97503 L 122.14722,384.50823 L 122.28784,384.50823 C 123.17846,383.11372 124.13353,382.11763 125.15308,381.51995 C 126.1726,380.92232 127.4265,380.62349 128.91479,380.62347 C 130.29759,380.62349 131.70384,380.88716 133.13354,381.41448 L 133.13354,381.41448 z M 139.67261,399.41448 L 139.67261,396.49651 C 141.93432,397.50433 144.10229,398.00824 146.17651,398.00823 C 149.39916,398.00824 151.01048,397.05902 151.0105,395.16058 C 151.01048,394.49261 150.72337,393.91254 150.14917,393.42034 C 149.57494,392.92816 148.25072,392.30707 146.17651,391.55706 C 143.44604,390.53754 141.72631,389.60297 141.01733,388.75335 C 140.30834,387.90375 139.95385,386.89887 139.95386,385.7387 C 139.95385,384.14497 140.60717,382.89399 141.91382,381.98577 C 143.22045,381.07759 145.02807,380.62349 147.33667,380.62347 C 149.65697,380.62349 151.81908,381.05708 153.823,381.92425 L 152.76831,384.54339 C 150.63548,383.69966 148.76634,383.27778 147.16089,383.27776 C 144.39525,383.27778 143.01244,384.05708 143.01245,385.61566 C 143.01244,386.33051 143.30834,386.9018 143.90015,387.32952 C 144.49193,387.75727 145.85424,388.35199 147.98706,389.1137 C 150.4597,390.01606 152.10325,390.90375 152.91772,391.77679 C 153.73216,392.64984 154.13939,393.71918 154.1394,394.98479 C 154.13939,396.74261 153.45384,398.12249 152.08276,399.12444 C 150.71165,400.1264 148.7722,400.62737 146.2644,400.62737 C 143.35815,400.62737 141.16088,400.22308 139.67261,399.41448 L 139.67261,399.41448 z M 175.61987,397.63909 L 175.61987,400.06487 C 174.09642,400.43987 172.61986,400.62737 171.19019,400.62737 C 166.94799,400.62737 164.8269,398.61175 164.8269,394.5805 L 164.8269,383.38323 L 160.13354,383.38323 L 160.13354,381.73089 L 164.8269,380.86956 L 166.18042,375.82464 L 168.02612,375.82464 L 168.02612,380.97503 L 175.72534,380.97503 L 175.72534,383.38323 L 168.02612,383.38323 L 168.02612,394.5805 C 168.02611,396.86566 169.15111,398.00824 171.40112,398.00823 C 172.49095,398.00824 173.8972,397.88519 175.61987,397.63909 L 175.61987,397.63909 z M 195.48315,400.27581 L 195.00854,397.69183 L 194.83276,397.69183 C 193.60228,399.64886 191.64525,400.62737 188.96167,400.62737 C 184.37963,400.62737 182.08862,398.27777 182.08862,393.57854 L 182.08862,380.97503 L 185.28784,380.97503 L 185.28784,393.40276 C 185.28784,396.44964 186.67065,397.97308 189.43628,397.97308 C 191.32299,397.97308 192.69994,397.43109 193.56714,396.3471 C 194.43431,395.26312 194.8679,393.47894 194.86792,390.99456 L 194.86792,380.97503 L 198.06714,380.97503 L 198.06714,400.27581 L 195.48315,400.27581 z M 209.61597,400.27581 L 202.30347,380.97503 L 205.60815,380.97503 L 209.8269,392.43597 C 210.82299,395.143 211.40892,397.0473 211.58472,398.14886 L 211.69019,398.14886 C 211.77221,397.63324 212.364,395.72894 213.46558,392.43597 L 217.66675,380.97503 L 220.98901,380.97503 L 213.67651,400.27581 L 209.61597,400.27581 z M 236.73901,400.27581 L 234.43628,389.79925 L 233.24097,383.99847 L 233.1355,383.99847 L 231.99292,389.86956 L 229.61987,400.27581 L 226.29761,400.27581 L 222.37769,380.97503 L 225.22534,380.97503 L 226.948,390.51995 C 227.34643,392.69965 227.68041,395.00238 227.94995,397.42816 L 228.05542,397.42816 C 228.41869,395.26019 228.81713,393.16254 229.25073,391.13519 L 231.58862,380.97503 L 234.9812,380.97503 L 237.21362,391.13519 C 237.71751,393.42035 238.11009,395.518 238.39136,397.42816 L 238.49683,397.42816 C 238.86009,394.59222 239.21165,392.28949 239.55151,390.51995 L 241.34448,380.97503 L 244.12183,380.97503 L 240.16675,400.27581 L 236.73901,400.27581 z M 252.99878,390.37933 L 246.09058,380.97503 L 249.72925,380.97503 L 254.8269,388.18206 L 259.94214,380.97503 L 263.58081,380.97503 L 256.63745,390.37933 L 263.89722,400.27581 L 260.27612,400.27581 L 254.8269,392.61175 L 249.36011,400.27581 L 245.72143,400.27581 L 252.99878,390.37933 z M 267.06128,380.97503 L 270.36597,380.97503 L 274.97143,392.47112 C 275.93236,394.87347 276.45385,396.57269 276.53589,397.56878 L 276.64136,397.56878 C 276.91088,396.25628 277.43822,394.54535 278.22339,392.43597 L 282.42456,380.97503 L 285.74683,380.97503 L 277.39722,402.78948 C 276.61205,404.82854 275.69799,406.36077 274.65503,407.38616 C 273.61205,408.41154 272.17065,408.92424 270.33081,408.92425 C 269.32299,408.92424 268.33862,408.82463 267.37768,408.62542 L 267.37768,406.07659 C 268.10424,406.21721 268.90112,406.28752 269.76831,406.28753 C 270.8933,406.28752 271.76928,406.04729 272.39624,405.56683 C 273.02319,405.08635 273.58276,404.26018 274.07495,403.08831 L 275.09448,400.45159 L 267.06128,380.97503 z M 305.55737,400.27581 L 290.40503,400.27581 L 290.40503,398.07854 L 302.00659,383.38323 L 290.98511,383.38323 L 290.98511,380.97503 L 305.24097,380.97503 L 305.24097,383.54144 L 293.86792,397.86761 L 305.55737,397.86761 L 305.55737,400.27581 z"
       id="flowRoot3277"
       style="font-size:36px;font-style:normal;font-variant:normal;font-weight:normal;font-stretch:normal;text-align:start;line-height:125%;writing-mode:lr-tb;text-anchor:start;fill:#000000;fill-opacity:1;stroke:none;stroke-width:1px;stroke-linecap:butt;stroke-linejoin:miter;stroke-opacity:1;font-family:Droid Sans Mono;-inkscape-font-specification:Droid Sans Mono" />
    <path
       d="M 149.68365,451.28891 C 146.70187,451.28891 144.44275,450.02914 142.9063,447.50961 C 141.36984,444.99009 140.60161,441.34751 140.60161,436.58188 C 140.60161,426.79023 143.62895,421.89441 149.68365,421.89438 C 152.70446,421.89441 154.98636,423.15417 156.52935,425.67367 C 158.0723,428.19323 158.84378,431.82929 158.8438,436.58188 C 158.84378,446.38657 155.7904,451.28891 149.68365,451.28891 L 149.68365,451.28891 z M 149.68365,448.26157 C 151.59769,448.26157 153.00394,447.34686 153.90239,445.51742 C 154.80082,443.688 155.25003,440.70949 155.25005,436.58188 C 155.25003,432.48033 154.80082,429.51484 153.90239,427.68539 C 153.00394,425.85599 151.59769,424.94128 149.68365,424.94125 C 147.79561,424.94128 146.41215,425.84948 145.53325,427.66586 C 144.65434,429.48229 144.21489,432.45429 144.21489,436.58188 C 144.21489,440.72251 144.65434,443.70428 145.53325,445.52719 C 146.41215,447.35011 147.79561,448.26157 149.68365,448.26157 L 149.68365,448.26157 z M 176.51958,450.89828 L 173.08208,450.89828 L 173.08208,433.06625 C 173.08207,431.47773 173.13415,429.12747 173.23833,426.01547 C 172.73051,426.57539 171.94275,427.31107 170.87505,428.2225 L 168.00396,430.58578 L 166.10943,428.18344 L 173.58989,422.3436 L 176.51958,422.3436 L 176.51958,450.89828 z M 206.57818,450.89828 L 188.78521,450.89828 L 188.78521,447.85141 L 195.62115,440.41 C 198.1602,437.63658 199.83337,435.56952 200.64068,434.20883 C 201.44795,432.84817 201.8516,431.34752 201.85161,429.70688 C 201.8516,428.23555 201.43819,427.07344 200.61138,426.22055 C 199.78454,425.36771 198.66801,424.94128 197.26177,424.94125 C 195.17843,424.94128 193.10812,425.8332 191.05083,427.61703 L 189.05865,425.29282 C 191.55864,423.05326 194.30603,421.93347 197.30083,421.93344 C 199.82686,421.93347 201.81905,422.62357 203.27739,424.00375 C 204.73571,425.38399 205.46488,427.23945 205.46489,429.57016 C 205.46488,431.11966 205.08076,432.7082 204.31255,434.33578 C 203.5443,435.9634 201.64977,438.40481 198.62896,441.66 L 193.14068,447.49985 L 193.14068,447.6561 L 206.57818,447.6561 L 206.57818,450.89828 z M 223.23833,435.85922 L 223.23833,435.97641 C 227.93884,436.5884 230.28909,438.85403 230.28911,442.77328 C 230.28909,445.41652 229.39066,447.49659 227.5938,449.01352 C 225.79691,450.53044 223.19926,451.28891 219.80083,451.28891 C 216.64978,451.28891 214.13026,450.77459 212.24224,449.74594 L 212.24224,446.42563 C 214.63807,447.67563 217.13155,448.30063 219.72271,448.30063 C 224.33207,448.30063 226.63675,446.41912 226.63677,442.6561 C 226.63675,439.29673 224.15629,437.61705 219.19536,437.61703 L 216.59771,437.61703 L 216.59771,434.66782 L 219.19536,434.66782 C 221.27869,434.66783 222.89327,434.17304 224.03911,433.18344 C 225.18493,432.19387 225.75785,430.88528 225.75786,429.25766 C 225.75785,427.92956 225.31514,426.87813 224.42974,426.10336 C 223.54431,425.32865 222.35941,424.94128 220.87505,424.94125 C 218.55733,424.94128 216.31775,425.72904 214.1563,427.30453 L 212.35943,424.86313 C 214.79432,422.91003 217.63286,421.93347 220.87505,421.93344 C 223.55733,421.93347 225.65043,422.578 227.15435,423.86703 C 228.65824,425.15612 229.41019,426.87487 229.41021,429.02328 C 229.41019,430.82018 228.87633,432.32408 227.80865,433.535 C 226.74092,434.74596 225.21748,435.5207 223.23833,435.85922 L 223.23833,435.85922 z M 255.66021,444.49203 L 251.50005,444.49203 L 251.50005,450.89828 L 248.06255,450.89828 L 248.06255,444.49203 L 234.85943,444.49203 L 234.85943,441.38657 L 247.82818,422.18735 L 251.50005,422.18735 L 251.50005,441.24985 L 255.66021,441.24985 L 255.66021,444.49203 z M 248.06255,441.24985 L 248.06255,434.29672 C 248.06254,432.00507 248.14717,429.19258 248.31646,425.85922 L 248.14068,425.85922 C 247.67191,427.18737 247.08598,428.35924 246.38286,429.37485 L 238.35552,441.24985 L 248.06255,441.24985 z M 261.01177,449.74594 L 261.01177,446.38657 C 262.88676,447.63657 265.23051,448.26157 268.04302,448.26157 C 272.41801,448.26157 274.6055,446.2173 274.60552,442.12875 C 274.6055,438.30064 272.36592,436.38658 267.88677,436.38657 C 266.72791,436.38658 265.224,436.55585 263.37505,436.89438 L 261.61724,435.7811 L 262.69146,422.3436 L 276.16802,422.3436 L 276.16802,425.58578 L 265.77739,425.58578 L 265.01568,433.76938 C 266.4089,433.50898 267.76957,433.37877 269.09771,433.37875 C 271.83207,433.37877 274.04235,434.12421 275.72857,435.61508 C 277.41475,437.10598 278.25784,439.14699 278.25786,441.73813 C 278.25784,444.78501 277.35941,447.13852 275.56255,448.79867 C 273.76566,450.45883 271.23311,451.28891 267.96489,451.28891 C 265.04822,451.28891 262.73051,450.77459 261.01177,449.74594 L 261.01177,449.74594 z M 300.48443,422.30453 L 300.48443,425.33188 C 299.55993,425.0194 298.4792,424.86315 297.24224,424.86313 C 294.32556,424.86315 292.13481,425.78112 290.66997,427.61703 C 289.20512,429.45299 288.4076,432.36315 288.27739,436.3475 L 288.51177,436.3475 C 289.74874,434.13398 291.74744,433.02721 294.50786,433.02719 C 297.04691,433.02721 299.03584,433.80195 300.47466,435.35141 C 301.91344,436.9009 302.63284,439.01679 302.63286,441.69907 C 302.63284,444.66782 301.84834,447.00831 300.27935,448.72055 C 298.71032,450.43279 296.6042,451.28891 293.96099,451.28891 C 291.12244,451.28891 288.86007,450.1919 287.17388,447.99789 C 285.48768,445.80389 284.64458,442.70168 284.64458,438.69125 C 284.64458,427.5194 288.80473,421.93347 297.12505,421.93344 C 298.4792,421.93347 299.59899,422.05717 300.48443,422.30453 L 300.48443,422.30453 z M 299.19536,441.69907 C 299.19535,439.81106 298.74938,438.35923 297.85747,437.3436 C 296.96553,436.32799 295.69275,435.82017 294.03911,435.82016 C 292.38546,435.82017 290.99874,436.34752 289.87896,437.40219 C 288.75916,438.45689 288.19926,439.66132 288.19927,441.01547 C 288.19926,442.99464 288.72661,444.70363 289.7813,446.14242 C 290.83598,447.58123 292.21619,448.30063 293.92193,448.30063 C 295.57556,448.30063 296.86787,447.72771 297.79888,446.58188 C 298.72985,445.43605 299.19535,443.80845 299.19536,441.69907 L 299.19536,441.69907 z M 312.14458,450.89828 L 323.14068,425.58578 L 308.41411,425.58578 L 308.41411,422.3436 L 326.77349,422.3436 L 326.77349,425.17563 L 315.93365,450.89828 L 312.14458,450.89828 z M 344.52739,435.7811 C 348.55081,437.86444 350.56253,440.42303 350.56255,443.45688 C 350.56253,445.81365 349.74222,447.70818 348.10161,449.14047 C 346.46097,450.57276 344.29301,451.28891 341.59771,451.28891 C 338.7852,451.28891 336.59119,450.61508 335.01568,449.26742 C 333.44015,447.91977 332.65239,446.03501 332.65239,443.61313 C 332.65239,440.26678 334.48833,437.70819 338.16021,435.93735 C 335.10031,434.03632 333.57036,431.63398 333.57036,428.73032 C 333.57036,426.63398 334.32882,424.97057 335.84575,423.74008 C 337.36267,422.50964 339.27999,421.89441 341.59771,421.89438 C 343.99353,421.89441 345.93363,422.5129 347.41802,423.74985 C 348.90238,424.98685 349.64456,426.66003 349.64458,428.76938 C 349.64456,431.76419 347.93883,434.10143 344.52739,435.7811 L 344.52739,435.7811 z M 341.63677,434.33578 C 344.65759,432.99466 346.168,431.18476 346.16802,428.9061 C 346.168,427.59102 345.75785,426.58841 344.93755,425.89828 C 344.11722,425.20821 342.99092,424.86315 341.55865,424.86313 C 340.17843,424.86315 339.08142,425.20821 338.26763,425.89828 C 337.45382,426.58841 337.04692,427.59102 337.04693,428.9061 C 337.04692,430.07799 337.36918,431.07083 338.01372,431.88461 C 338.65825,432.69843 339.86593,433.51549 341.63677,434.33578 L 341.63677,434.33578 z M 341.08989,437.30453 C 337.7826,438.88007 336.12895,440.99595 336.12896,443.65219 C 336.12895,446.77719 337.92582,448.33969 341.51958,448.33969 C 343.2904,448.33969 344.66084,447.91326 345.63091,447.06039 C 346.60095,446.20753 347.08597,445.01938 347.08599,443.49594 C 347.08597,442.32407 346.67582,441.28566 345.85552,440.38071 C 345.03519,439.47577 343.64196,438.54153 341.67583,437.57797 L 341.08989,437.30453 z M 358.74615,450.93735 L 358.74615,447.89047 C 359.61853,448.21599 360.69926,448.37876 361.98833,448.37875 C 364.90499,448.37876 367.09574,447.46079 368.5606,445.62485 C 370.02543,443.78892 370.82295,440.87876 370.95318,436.89438 L 370.7188,436.89438 C 369.46879,439.10793 367.46358,440.2147 364.70318,440.21469 C 362.17713,440.2147 360.19471,439.44647 358.75591,437.91 C 357.3171,436.37356 356.5977,434.25117 356.59771,431.54282 C 356.5977,428.57409 357.38221,426.23034 358.95122,424.51157 C 360.52023,422.79284 362.62634,421.93347 365.26958,421.93344 C 368.13415,421.93347 370.40303,423.04675 372.07622,425.27328 C 373.74938,427.49987 374.58597,430.5858 374.58599,434.5311 C 374.58597,445.70298 370.42582,451.28891 362.10552,451.28891 C 360.73833,451.28891 359.61853,451.17172 358.74615,450.93735 L 358.74615,450.93735 z M 360.03521,431.54282 C 360.0352,433.43085 360.48116,434.88267 361.3731,435.89828 C 362.26502,436.91392 363.5378,437.42173 365.19146,437.42172 C 366.84509,437.42173 368.23181,436.89114 369.35161,435.82992 C 370.47139,434.76874 371.03128,433.56757 371.0313,432.22641 C 371.03128,430.26028 370.51045,428.55456 369.4688,427.10922 C 368.42712,425.66393 367.0404,424.94128 365.30865,424.94125 C 363.64197,424.94128 362.3464,425.50768 361.42193,426.64047 C 360.49744,427.77331 360.0352,429.40742 360.03521,431.54282 L 360.03521,431.54282 z"
       id="flowRoot3289"
       style="font-size:40px;font-style:normal;font-variant:normal;font-weight:normal;font-stretch:normal;text-align:start;line-height:125%;writing-mode:lr-tb;text-anchor:start;fill:#ffffff;fill-opacity:1;stroke:none;stroke-width:1px;stroke-linecap:butt;stroke-linejoin:miter;stroke-opacity:1;font-family:Droid Sans Mono;-inkscape-font-specification:Droid Sans Mono" />
  </g>
</svg>
